<?xml version="1.0" encoding="UTF-8"?>
<svg width="200px" height="200px" viewBox="0 0 200 200" version="1.1" xmlns="http://www.w3.org/2000/svg" xmlns:xlink="http://www.w3.org/1999/xlink">
    <!-- Generator: Sketch 41.2 (35397) - http://www.bohemiancoding.com/sketch -->
    <title>Oval 2</title>
    <desc>Created with Sketch.</desc>
    <defs>
        <circle id="path-1" cx="92.6585372" cy="92.6585372" r="92.6585372"></circle>
    </defs>
    <g id="Page-1" stroke="none" stroke-width="1" fill="none" fill-rule="evenodd">
        <ellipse id="Oval-2" fill="#FFFFFF" cx="100" cy="100" rx="100" ry="100"></ellipse>
        <g id="Bitmap" transform="translate(7.000000, 6.000000)">
            <mask id="mask-2" fill="white">
                <use xlink:href="#path-1"></use>
            </mask>
            <use id="Mask" fill="#02A1B6" xlink:href="#path-1"></use>
            <polygon id="Path-14" fill-opacity="0.1" fill="#000000" mask="url(#mask-2)" points="46.0048818 93.4131634 88.2229741 253.161726 185.822435 209.772427 144.505797 92.3443942"></polygon>
            <g id="eye" mask="url(#mask-2)">
                <g transform="translate(44.580994, 60.315463)">
                    <path d="M0.146827723,31.4040598 C0.146827723,31.4040598 43.5771024,102.584774 99.4911482,31.5986919 C99.6396141,31.410206 50.8074555,31.5986919 50.8074555,31.5986919 C8.25638125,31.793324 0.146827723,31.4040598 0.146827723,31.4040598 Z" id="Path-13" fill="#FFCC36"></path>
                    <path d="M0.146827723,0.809259777 C0.146827723,0.809259777 43.5771024,71.9899742 99.4911482,1.00389188 C99.6396141,0.815405987 50.8074555,1.00389188 50.8074555,1.00389188 C8.25638125,1.19852397 0.146827723,0.809259777 0.146827723,0.809259777 Z" id="Path-13" fill="#FFCC36" transform="translate(49.819157, 16.656070) scale(1, -1) translate(-49.819157, -16.656070) "></path>
                    <ellipse id="Oval-5" fill="#00C5F5" cx="49.7967931" cy="31.4399131" rx="22.6985416" ry="22.6985416"></ellipse>
                    <ellipse id="Oval-6" fill="#FFFFFF" cx="50.0875548" cy="31.7306748" rx="15.9962062" ry="15.9962062"></ellipse>
                    <ellipse id="Oval-7" fill="#FF7861" cx="49.8283347" cy="31.4714547" rx="9.61802612" ry="9.61802612"></ellipse>
                    <ellipse id="Oval-8" fill="#FFFFFF" cx="55.07064" cy="26.2241143" rx="4.37068572" ry="4.37068572"></ellipse>
                </g>
            </g>
        </g>
    </g>
</svg>