<?xml version="1.0" encoding="UTF-8" standalone="no"?>
<svg width="109px" height="36px" viewBox="0 0 109 36" version="1.1" xmlns="http://www.w3.org/2000/svg" xmlns:xlink="http://www.w3.org/1999/xlink">
    <!-- Generator: Sketch 41.2 (35397) - http://www.bohemiancoding.com/sketch -->
    <title>logo-wbg-footer-cn</title>
    <desc>Created with Sketch.</desc>
    <defs>
        <path d="M21.811,29.239 C24.11,29.212 26.291,28.876 28.221,28.225 C28.707,28.063 29.17,27.881 29.61,27.686 C29.073,28.997 28.283,30.09 27.256,30.905 C25.227,32.397 22.833,33.423 20.234,33.815 C20.885,32.69 21.409,31.104 21.811,29.239 M10.997,32.427 C10.948,32.386 10.896,32.351 10.839,32.322 C9.935,31.883 9.569,29.867 10.04,26.785 C11.776,27.566 13.67,28.185 15.658,28.609 C17.165,28.931 18.666,29.13 20.135,29.207 C19.414,32.336 18.491,33.978 17.882,33.978 C17.842,33.978 17.805,33.984 17.768,33.992 C15.343,33.974 13.048,33.417 10.997,32.427 M2.603,22.462 C2.464,21.935 2.376,21.396 2.342,20.847 C2.885,21.62 3.548,22.376 4.336,23.107 C5.527,24.207 6.941,25.191 8.516,26.035 C8.195,27.836 8.104,29.467 8.308,30.781 C5.591,28.726 3.56,25.819 2.603,22.462 M22.837,18.093 C22.837,17.456 22.827,16.818 22.81,16.181 C24.833,16.047 26.709,15.522 28.244,14.638 C29.665,17.45 30.428,20.417 30.422,23.218 C30.42,24.029 30.35,24.8 30.221,25.529 C29.491,25.976 28.648,26.365 27.702,26.683 C26.021,27.249 24.126,27.558 22.119,27.609 C22.604,24.716 22.837,21.356 22.837,18.093 M15.997,27.019 C13.98,26.587 12.075,25.947 10.351,25.136 C10.916,22.587 11.972,19.499 13.644,16.072 C13.886,15.576 14.134,15.088 14.388,14.609 C15.557,15.133 16.828,15.55 18.162,15.835 C19.175,16.053 20.188,16.171 21.182,16.205 C21.199,16.814 21.208,17.444 21.208,18.094 C21.208,21.926 20.902,25.11 20.459,27.594 C19.005,27.528 17.504,27.341 15.997,27.019 M5.441,21.911 C4.058,20.634 3.108,19.28 2.624,17.936 C3.008,16.431 3.75,14.92 4.844,13.472 C5.882,12.1 7.171,10.863 8.65,9.8 C9.077,10.572 9.675,11.324 10.436,12.038 C11.159,12.715 12.003,13.33 12.938,13.867 C12.68,14.356 12.427,14.853 12.183,15.357 C10.74,18.316 9.559,21.49 8.868,24.373 C7.582,23.647 6.427,22.821 5.441,21.911 M21.731,6.785 C23.582,8.162 25.278,9.939 26.697,12.019 C26.966,12.414 27.219,12.815 27.461,13.219 C26.159,13.97 24.516,14.419 22.74,14.546 C22.591,11.736 22.259,9.034 21.731,6.785 M18.504,14.241 C17.326,13.99 16.206,13.63 15.175,13.177 C16.694,10.519 18.355,8.21 19.993,6.492 C20.506,8.506 20.936,11.215 21.117,14.573 C20.253,14.538 19.375,14.429 18.504,14.241 M11.548,10.85 C10.875,10.221 10.362,9.562 10.019,8.903 C11.544,7.985 13.233,7.237 15.03,6.698 C16.099,6.376 17.182,6.138 18.261,5.972 C16.703,7.719 15.146,9.938 13.719,12.443 C12.906,11.971 12.174,11.438 11.548,10.85 M8.047,5.664 C8.026,5.746 8.002,5.831 7.983,5.915 C7.818,6.683 7.837,7.47 8.032,8.25 C6.28,9.458 4.756,10.887 3.545,12.493 C3.175,12.98 2.844,13.48 2.545,13.982 C3.447,10.648 5.408,7.748 8.047,5.664 M9.575,6.255 C9.755,5.41 10.262,4.656 11.049,4.031 C12.948,3.463 15.158,3.601 17.482,4.45 C16.505,4.62 15.526,4.846 14.562,5.138 C12.766,5.677 11.072,6.413 9.52,7.309 C9.486,6.953 9.501,6.599 9.575,6.255 M22.781,4.11 C23.34,3.748 23.853,3.5 24.282,3.397 C25.099,3.724 25.908,4.142 26.675,4.67 C25.445,4.365 24.135,4.177 22.781,4.11 M20.038,2.367 C20.699,2.441 21.403,2.555 22.126,2.723 C21.673,2.967 21.203,3.271 20.726,3.637 C20.513,3.156 20.284,2.732 20.038,2.367 M18.273,3.006 C17.537,2.724 16.81,2.506 16.093,2.349 C16.668,2.285 17.25,2.249 17.843,2.247 C18.119,2.251 18.46,2.583 18.817,3.228 C18.636,3.152 18.455,3.076 18.273,3.006 M0.365,18.12 C0.365,19.782 0.604,21.391 1.04,22.917 C1.066,23.021 1.09,23.122 1.12,23.226 C1.126,23.244 1.135,23.261 1.142,23.281 C3.35,30.42 10.012,35.621 17.865,35.621 C21.498,35.621 24.876,34.508 27.676,32.605 C27.704,32.589 27.733,32.576 27.758,32.558 C27.925,32.445 28.086,32.326 28.242,32.201 C31.462,29.822 33.84,26.369 34.84,22.373 C34.896,22.187 34.946,22.002 34.986,21.812 C34.995,21.767 34.999,21.722 35.002,21.679 C35.238,20.529 35.365,19.339 35.365,18.12 C35.365,15.759 34.902,13.467 33.99,11.309 C33.815,10.894 33.337,10.702 32.923,10.877 C32.509,11.05 32.316,11.529 32.49,11.942 C33.318,13.897 33.738,15.976 33.738,18.12 C33.738,19.432 33.574,20.708 33.271,21.931 C33.032,22.701 32.609,23.413 32.025,24.062 C32.039,23.785 32.048,23.505 32.049,23.22 C32.055,20.099 31.193,16.8 29.591,13.7 C30.765,12.693 31.513,11.447 31.771,10.053 C31.853,9.611 31.561,9.187 31.119,9.105 C30.676,9.022 30.251,9.315 30.17,9.758 C30,10.679 29.522,11.524 28.772,12.243 C28.54,11.858 28.297,11.477 28.042,11.099 C26.613,9.005 24.916,7.193 23.058,5.746 C25.509,5.908 27.777,6.502 29.601,7.521 C29.888,7.684 30.268,7.68 30.536,7.456 C30.882,7.168 30.926,6.655 30.64,6.308 C28.017,2.641 23.481,0.618 17.865,0.618 C8.217,0.62 0.365,8.47 0.365,18.12" id="path-1"></path>
    </defs>
    <g id="Page-1" stroke="none" stroke-width="1" fill="none" fill-rule="evenodd" opacity="0.5">
        <g id="logo-wbg-footer-cn">
            <g id="Group">
                <g transform="translate(39.000000, 12.000000)" id="Shape" fill="#FFFFFF">
                    <path d="M2.401,4.008 L2.401,3.708 C2.401,3.007 2.366,2.305 2.309,1.592 C2.839,1.718 3.369,1.777 3.92,1.777 C3.805,2.191 3.748,2.836 3.748,3.709 L3.748,4.02 L5.048,4.02 L5.048,2.007 C5.048,1.661 5.013,1.317 4.956,0.971 C5.439,1.086 5.957,1.167 6.532,1.19 C6.405,1.524 6.348,1.835 6.348,2.133 L6.348,4.02 L7.923,4.02 L7.923,2.179 C7.923,1.834 7.889,1.489 7.831,1.144 C8.257,1.225 8.786,1.27 9.407,1.282 C9.281,1.627 9.223,2.018 9.223,2.456 L9.223,4.02 L9.361,4.02 C10.075,4.02 10.799,3.997 11.524,3.939 C11.49,4.18 11.478,4.421 11.478,4.653 C11.478,4.893 11.49,5.135 11.524,5.377 C10.8,5.319 10.075,5.285 9.361,5.285 L9.223,5.285 L9.223,7.575 C9.223,8.013 9.235,8.448 9.268,8.874 C8.889,8.853 8.52,8.829 8.152,8.829 L6.265,8.829 C5.828,8.829 5.391,8.85 4.954,8.874 C5.011,8.483 5.046,8.081 5.046,7.667 L5.046,5.286 L3.746,5.286 L3.746,9.817 L7.564,9.817 C8.565,9.817 9.566,9.796 10.579,9.725 C10.544,9.991 10.534,10.243 10.534,10.496 C10.534,10.726 10.546,10.969 10.579,11.209 C9.566,11.152 8.565,11.129 7.564,11.129 L5.092,11.129 C4.171,11.129 3.261,11.152 2.354,11.209 C2.377,10.52 2.399,9.898 2.399,9.322 L2.399,5.297 C1.87,5.309 1.341,5.332 0.823,5.377 C0.846,5.136 0.869,4.895 0.869,4.653 C0.869,4.422 0.846,4.181 0.823,3.939 C1.354,3.984 1.872,4.008 2.401,4.008 Z M6.347,7.62 L7.923,7.62 L7.923,5.284 L6.347,5.284 L6.347,7.62 Z"></path>
                    <path d="M16.437,1.328 L19.807,1.328 C20.522,1.328 21.245,1.317 21.959,1.282 C21.924,1.696 21.912,2.098 21.912,2.501 L21.912,5.284 C21.912,5.722 21.924,6.147 21.959,6.585 C21.359,6.562 20.762,6.55 20.176,6.538 C20.406,6.688 20.658,6.815 20.934,6.931 C21.579,7.218 22.336,7.402 23.225,7.482 C22.809,7.988 22.51,8.461 22.327,8.92 C21.694,8.645 21.153,8.393 20.716,8.139 C20.704,8.231 20.704,8.311 20.704,8.379 L20.704,11.082 C20.704,11.266 20.716,11.463 20.751,11.658 C20.497,11.635 20.233,11.623 19.98,11.623 C19.74,11.623 19.498,11.635 19.267,11.658 C19.29,11.461 19.314,11.265 19.314,11.082 L19.314,7.932 C19.314,7.76 19.291,7.575 19.267,7.391 C19.406,7.438 19.554,7.461 19.693,7.483 C19.578,7.391 19.474,7.311 19.394,7.219 C19.164,7.024 18.968,6.793 18.806,6.539 L17.646,6.539 C17.278,6.863 16.921,7.148 16.553,7.414 C16.909,7.461 17.232,7.482 17.519,7.482 C17.392,7.646 17.311,7.806 17.289,7.988 C17.127,9.244 16.874,10.072 16.529,10.486 C16.232,10.9 15.69,11.326 14.908,11.752 C14.609,11.303 14.217,10.936 13.747,10.635 C14.471,10.475 14.989,10.221 15.311,9.901 C15.609,9.624 15.805,9.13 15.898,8.428 C15.898,8.221 15.886,8.047 15.886,7.887 C15.185,8.36 14.471,8.75 13.747,9.061 C13.505,8.635 13.171,8.28 12.757,7.979 C13.562,7.817 14.286,7.541 14.92,7.151 C15.265,6.967 15.586,6.76 15.874,6.553 C15.333,6.553 14.804,6.565 14.275,6.587 C14.298,6.149 14.32,5.725 14.32,5.287 L14.32,2.504 C14.286,2.102 14.275,1.699 14.275,1.285 C14.988,1.315 15.712,1.328 16.437,1.328 Z M17.473,3.397 L17.473,2.501 L15.585,2.501 L15.585,3.397 L17.473,3.397 Z M17.473,4.515 L15.585,4.515 L15.585,5.376 L17.473,5.376 L17.473,4.515 Z M18.725,3.397 L20.657,3.397 L20.657,2.501 L18.725,2.501 L18.725,3.397 Z M20.656,4.515 L18.724,4.515 L18.724,5.376 L20.656,5.376 L20.656,4.515 Z"></path>
                    <path d="M28.045,1.511 C27.746,1.857 27.516,2.237 27.342,2.628 C27.895,2.628 28.471,2.616 29.08,2.582 C29.045,2.811 29.033,3.03 29.033,3.214 C29.033,3.468 29.047,3.675 29.08,3.847 C28.642,3.825 28.045,3.801 27.285,3.801 L26.803,3.801 C26.641,4.101 26.479,4.4 26.307,4.687 C26.401,4.699 26.504,4.699 26.608,4.699 L28.092,4.699 C28.354,4.699 28.619,4.687 28.897,4.654 C28.874,4.848 28.862,5.045 28.862,5.24 C28.862,5.447 28.874,5.666 28.897,5.873 C28.62,5.85 28.356,5.826 28.092,5.826 L27.643,5.826 L27.643,6.816 L27.998,6.816 C28.275,6.816 28.539,6.804 28.814,6.769 C28.779,6.964 28.769,7.16 28.769,7.343 C28.769,7.564 28.781,7.771 28.814,7.978 C28.539,7.955 28.275,7.931 27.998,7.931 L27.643,7.931 L27.643,9.599 C27.965,9.449 28.334,9.253 28.723,9.011 C28.758,9.484 28.864,9.898 29.034,10.267 C28.229,10.632 27.481,11.093 26.792,11.622 C26.517,11.151 26.274,10.806 26.067,10.587 C26.344,10.149 26.481,9.702 26.481,9.243 L26.481,7.931 L25.895,7.931 C25.62,7.931 25.354,7.954 25.079,7.978 C25.102,7.771 25.126,7.562 25.126,7.343 C25.126,7.159 25.103,6.964 25.079,6.769 C25.354,6.804 25.62,6.816 25.895,6.816 L26.481,6.816 L26.481,5.826 C26.241,5.838 26.01,5.849 25.803,5.873 C25.826,5.711 25.838,5.562 25.838,5.412 C25.723,5.584 25.608,5.746 25.492,5.907 C25.285,5.607 24.939,5.32 24.457,5.055 C25.113,4.341 25.572,3.686 25.826,3.1 C26.056,2.571 26.252,1.88 26.435,1.018 C26.801,1.235 27.342,1.396 28.045,1.511 Z M34.244,3.076 L34.244,5.146 C34.244,5.721 34.265,6.285 34.336,6.848 C33.828,6.825 33.313,6.815 32.807,6.815 L32.139,6.815 C32.231,7.321 32.358,7.733 32.508,8.067 C32.875,7.792 33.254,7.458 33.623,7.077 C33.877,7.47 34.209,7.802 34.646,8.067 C34.406,8.137 33.865,8.413 33.013,8.883 C33.495,9.436 34.22,9.862 35.187,10.137 C34.669,10.459 34.22,10.885 33.841,11.438 C32.864,10.725 32.173,9.954 31.771,9.114 C31.472,8.516 31.265,7.757 31.16,6.813 L30.517,6.813 L30.517,9.768 C30.863,9.608 31.23,9.401 31.599,9.149 C31.644,9.631 31.712,10.045 31.818,10.401 C31.138,10.725 30.437,11.126 29.711,11.622 C29.527,11.276 29.287,10.976 28.988,10.714 C29.195,10.39 29.31,10.173 29.31,10.046 L29.31,3.075 C29.31,2.511 29.275,1.948 29.218,1.372 C29.724,1.407 30.23,1.419 30.747,1.419 L32.806,1.419 C33.312,1.419 33.829,1.406 34.337,1.372 C34.266,1.949 34.244,2.513 34.244,3.076 Z M30.518,2.536 L30.518,3.616 L33.036,3.616 L33.036,2.536 L30.518,2.536 Z M30.518,4.743 L30.518,5.687 L33.036,5.687 L33.036,4.743 L30.518,4.743 Z"></path>
                    <path d="M39.836,1.558 C39.606,1.744 39.445,1.926 39.354,2.111 C38.823,2.997 38.168,3.825 37.364,4.607 C37.089,4.285 36.696,3.998 36.202,3.755 C36.825,3.308 37.319,2.835 37.686,2.329 C37.997,1.903 38.215,1.466 38.354,1.017 C38.754,1.225 39.25,1.409 39.836,1.558 Z M40.516,4.111 C40.286,4.261 40.02,4.548 39.745,4.962 C39.606,5.204 39.456,5.435 39.296,5.665 L39.296,9.196 C39.296,10.034 39.319,10.864 39.388,11.704 C39.136,11.669 38.882,11.657 38.63,11.657 C38.39,11.657 38.146,11.669 37.905,11.704 C37.962,10.864 37.997,10.034 37.997,9.196 L37.997,7.135 C37.675,7.434 37.331,7.735 36.962,8.022 C36.79,7.422 36.583,6.93 36.341,6.538 C37.042,6.112 37.607,5.663 38.021,5.203 C38.423,4.721 38.746,4.157 38.988,3.489 C39.455,3.812 39.963,4.02 40.516,4.111 Z M42.85,4.606 L44.69,4.606 C45.438,4.606 46.184,4.583 46.934,4.514 C46.911,4.778 46.899,5.031 46.899,5.284 C46.899,5.526 46.911,5.766 46.934,5.997 C46.254,5.952 45.586,5.917 44.92,5.905 L44.92,10.587 C44.92,10.954 44.77,11.232 44.473,11.392 C44.196,11.566 43.631,11.658 42.805,11.658 C42.782,11.127 42.619,10.646 42.309,10.219 C42.655,10.254 42.93,10.266 43.114,10.266 C43.425,10.266 43.587,10.151 43.61,9.909 L43.61,5.907 L42.85,5.907 C42.092,5.907 41.344,5.941 40.608,5.999 C40.629,5.769 40.653,5.527 40.653,5.286 C40.653,5.033 40.632,4.78 40.608,4.516 C41.344,4.583 42.09,4.606 42.85,4.606 Z M43.344,1.593 L44.059,1.593 C44.748,1.593 45.438,1.57 46.129,1.513 C46.092,1.753 46.082,1.996 46.082,2.226 C46.082,2.456 46.092,2.675 46.129,2.905 C45.438,2.847 44.748,2.812 44.059,2.812 L43.344,2.812 C42.655,2.812 41.965,2.846 41.274,2.905 C41.297,2.676 41.321,2.457 41.321,2.226 C41.321,1.997 41.298,1.753 41.274,1.513 C41.965,1.569 42.655,1.593 43.344,1.593 Z"></path>
                    <path d="M51.949,1.511 C51.73,1.719 51.57,1.926 51.467,2.133 L53.606,2.133 C53.469,1.948 53.344,1.788 53.206,1.638 C53.606,1.477 53.964,1.259 54.286,0.972 C54.448,1.271 54.677,1.57 54.999,1.868 C54.851,1.96 54.712,2.04 54.585,2.133 L56.483,2.133 C57.012,2.133 57.575,2.12 58.196,2.087 C58.163,2.305 58.151,2.501 58.151,2.674 C58.151,2.927 58.163,3.134 58.196,3.306 C57.782,3.283 57.206,3.261 56.483,3.261 L54.549,3.261 L54.549,3.662 L55.897,3.662 C56.377,3.662 56.909,3.651 57.471,3.616 C57.438,3.824 57.426,3.997 57.426,4.157 C57.426,4.387 57.438,4.583 57.471,4.743 C57.092,4.721 56.563,4.698 55.897,4.698 L54.549,4.698 L54.549,5.009 L55.897,5.009 C56.377,5.009 56.909,4.997 57.471,4.962 C57.438,5.17 57.426,5.343 57.426,5.503 C57.426,5.733 57.438,5.929 57.471,6.089 C57.092,6.067 56.563,6.044 55.897,6.044 L54.549,6.044 L54.549,6.319 L56.344,6.319 C56.86,6.319 57.412,6.307 58.012,6.273 C57.977,6.479 57.967,6.676 57.967,6.848 C57.967,7.078 57.979,7.274 58.012,7.434 C57.61,7.413 57.057,7.389 56.344,7.389 L51.166,7.389 C51.166,7.502 51.166,7.619 51.18,7.711 C50.938,7.688 50.696,7.664 50.467,7.664 C50.213,7.664 49.973,7.687 49.742,7.711 C49.799,6.906 49.834,6.088 49.834,5.283 L49.834,4.72 C49.672,4.927 49.5,5.134 49.34,5.33 C49.063,4.996 48.694,4.709 48.213,4.467 C48.879,3.891 49.397,3.293 49.787,2.651 C50.133,2.098 50.375,1.547 50.512,0.971 C50.905,1.19 51.375,1.374 51.949,1.511 Z M50.557,8.159 L52.94,8.159 L52.94,7.977 C52.94,7.815 52.917,7.653 52.893,7.481 C53.375,7.608 53.881,7.665 54.411,7.665 C54.354,7.849 54.321,8.022 54.307,8.159 L56.528,8.159 C57.173,8.159 57.815,8.138 58.462,8.069 C58.425,8.299 58.415,8.516 58.415,8.747 C58.415,8.954 58.427,9.161 58.462,9.37 C57.816,9.311 57.173,9.276 56.528,9.276 L55.321,9.276 C55.735,9.53 56.112,9.714 56.46,9.829 C56.989,10.034 57.69,10.14 58.552,10.14 C58.114,10.554 57.816,11.015 57.656,11.533 C56.715,11.279 55.896,10.922 55.217,10.463 C54.885,10.244 54.574,9.969 54.285,9.647 L54.285,10.993 C54.285,11.165 54.297,11.348 54.332,11.534 C54.08,11.497 53.838,11.487 53.607,11.487 C53.367,11.487 53.125,11.499 52.894,11.534 C52.917,11.348 52.941,11.165 52.941,10.993 L52.941,9.716 C52.503,10.027 52.078,10.29 51.664,10.521 C51.041,10.867 50.248,11.201 49.293,11.535 C49.064,11.109 48.764,10.752 48.397,10.451 C49.512,10.246 50.502,9.924 51.377,9.498 C51.525,9.428 51.676,9.359 51.815,9.279 L50.559,9.279 C49.914,9.279 49.272,9.314 48.627,9.373 C48.648,9.164 48.66,8.957 48.66,8.75 C48.66,8.52 48.648,8.303 48.627,8.072 C49.27,8.138 49.912,8.159 50.557,8.159 Z M53.295,3.261 L51.086,3.261 L51.086,3.662 L53.295,3.662 L53.295,3.261 Z M53.295,4.698 L51.086,4.698 L51.086,5.009 L53.295,5.009 L53.295,4.698 Z M53.295,6.319 L53.295,6.044 L51.098,6.044 C51.098,6.148 51.098,6.239 51.11,6.319 L53.295,6.319 Z"></path>
                    <path d="M62.567,1.235 L67.872,1.235 C68.538,1.235 69.218,1.212 69.895,1.143 C69.827,1.776 69.803,2.408 69.803,3.029 L69.803,9.723 C69.803,10.391 69.826,11.034 69.895,11.702 C69.528,11.669 69.288,11.657 69.17,11.657 C69.043,11.657 68.791,11.669 68.412,11.702 C68.435,11.45 68.445,11.22 68.457,10.989 L61.971,10.989 C61.983,11.243 62.004,11.495 62.028,11.749 C61.637,11.714 61.383,11.702 61.268,11.702 C61.143,11.702 60.901,11.716 60.545,11.749 C60.602,11.081 60.637,10.438 60.637,9.769 L60.637,3.029 C60.637,2.408 60.602,1.775 60.545,1.143 C61.209,1.212 61.889,1.235 62.567,1.235 Z M68.504,9.771 L68.504,9.724 L68.504,2.455 L61.936,2.455 L61.936,9.77 L68.504,9.77 L68.504,9.771 Z M64.237,4.065 L65.444,4.065 L65.444,3.616 C65.444,3.249 65.421,2.87 65.399,2.501 C65.858,2.593 66.352,2.628 66.883,2.628 C66.733,2.983 66.664,3.387 66.664,3.847 L66.664,4.054 C67.17,4.054 67.676,4.02 68.184,3.974 C68.149,4.204 68.137,4.434 68.137,4.654 C68.137,4.861 68.149,5.079 68.184,5.287 C67.664,5.24 67.159,5.217 66.664,5.206 L66.664,8.209 C66.664,8.873 66.478,9.266 66.135,9.381 C65.768,9.565 65.283,9.647 64.686,9.647 C64.606,9.059 64.456,8.565 64.237,8.161 C64.651,8.231 64.928,8.253 65.089,8.253 C65.319,8.253 65.444,8.036 65.444,7.575 L65.444,6.126 C64.801,7.208 64.016,8.161 63.11,8.968 C62.856,8.646 62.524,8.314 62.12,7.98 C63.155,7.404 64.065,6.472 64.825,5.195 L64.237,5.195 C63.592,5.195 62.95,5.23 62.303,5.287 C62.328,5.08 62.35,4.861 62.35,4.655 C62.35,4.435 62.329,4.207 62.303,3.976 C62.949,4.042 63.592,4.065 64.237,4.065 Z"></path>
                </g>
                <g id="Clipped">
                    <mask id="mask-2" fill="white">
                        <use xlink:href="#path-1"></use>
                    </mask>
                    <g id="SVGID_1_"></g>
                    <rect id="Rectangle-path" fill="#FFFFFF" mask="url(#mask-2)" x="0.365" y="0.62" width="35" height="34.999"></rect>
                </g>
            </g>
        </g>
    </g>
</svg>