<?xml version="1.0" encoding="utf-8"?>
<!-- Generator: Adobe Illustrator 16.0.0, SVG Export Plug-In . SVG Version: 6.00 Build 0)  -->
<!DOCTYPE svg PUBLIC "-//W3C//DTD SVG 1.1//EN" "http://www.w3.org/Graphics/SVG/1.1/DTD/svg11.dtd">
<svg version="1.1" id="Layer_1" xmlns="http://www.w3.org/2000/svg" xmlns:xlink="http://www.w3.org/1999/xlink" x="0px" y="0px"
	 width="12px" height="7px" viewBox="0 0 12 7" enable-background="new 0 0 12 7" xml:space="preserve">
<title>angle-down-orange</title>
<desc>Created with Sketch.</desc>
<g id="Page-1">
	<g id="angle-down-orange">
		<g id="Symbols">
			<g id="Dropdown">
				<g id="Group">
					<path id="Shape" fill="#0071BC" d="M11.998,1.071c0,0.097-0.037,0.183-0.111,0.257L6.686,6.529
						c-0.074,0.074-0.16,0.111-0.256,0.111c-0.097,0-0.183-0.037-0.257-0.111L0.971,1.328c-0.075-0.074-0.112-0.16-0.112-0.257
						c0-0.097,0.037-0.182,0.112-0.257l0.558-0.558c0.075-0.074,0.16-0.111,0.257-0.111c0.097,0,0.182,0.037,0.257,0.111
						l4.386,4.387l4.385-4.387c0.074-0.074,0.16-0.111,0.258-0.111c0.097,0,0.183,0.037,0.257,0.111l0.56,0.558
						C11.961,0.89,11.998,0.975,11.998,1.071z"/>
				</g>
			</g>
		</g>
	</g>
</g>
</svg>
