<?xml version="1.0" encoding="utf-8"?>
<!-- Generator: Adobe Illustrator 16.0.0, SVG Export Plug-In . SVG Version: 6.00 Build 0)  -->
<!DOCTYPE svg PUBLIC "-//W3C//DTD SVG 1.1//EN" "http://www.w3.org/Graphics/SVG/1.1/DTD/svg11.dtd">
<svg version="1.1" id="Layer_1" xmlns="http://www.w3.org/2000/svg" xmlns:xlink="http://www.w3.org/1999/xlink" x="0px" y="0px"
	 width="7px" height="11px" viewBox="0 0 7 11" enable-background="new 0 0 7 11" xml:space="preserve">
<title></title>
<desc>Created with Sketch.</desc>
<g id="Page-1">
	<g enable-background="new    ">
		<path fill="#0071BC" d="M6.548,5.214c0,0.088-0.034,0.165-0.101,0.231l-4.681,4.681c-0.067,0.067-0.144,0.101-0.231,0.101
			c-0.087,0-0.164-0.033-0.231-0.101L0.802,9.624C0.735,9.557,0.702,9.479,0.702,9.393s0.034-0.164,0.101-0.23L4.75,5.214
			L0.802,1.267C0.735,1.2,0.702,1.123,0.702,1.036s0.034-0.164,0.101-0.231l0.502-0.502c0.067-0.067,0.144-0.101,0.231-0.101
			c0.087,0,0.164,0.033,0.231,0.101l4.681,4.681C6.514,5.05,6.548,5.127,6.548,5.214z"/>
	</g>
</g>
</svg>
