<?xml version="1.0" encoding="UTF-8"?>
<svg id="Layer_1" data-name="Layer 1" xmlns="http://www.w3.org/2000/svg" viewBox="0 0 84.99 75.95">
  <defs>
    <style>
      .cls-1 {
        fill: #df3416;
        stroke-width: 0px;
      }
    </style>
  </defs>
  <path class="cls-1" d="M42.46,26.62h-18.44c-.88,0-1.58-.47-1.74-1.18-.01-.06-.02-.12-.02-.18v-2.79c0-.71.72-1.34,1.59-1.38.06,0,.12,0,.18,0h36.88c.85,0,1.55.44,1.72,1.08.03.12.04.24.05.36,0,.88,0,1.76,0,2.64s-.74,1.44-1.77,1.44h-18.46,0Z"/>
  <path class="cls-1" d="M42.46,40.74h-18.44c-.88,0-1.58-.47-1.74-1.18-.01-.06-.02-.12-.02-.18v-2.79c0-.71.72-1.34,1.59-1.38.06,0,.12,0,.18,0h36.88c.85,0,1.55.44,1.72,1.08.03.12.04.24.05.36,0,.88,0,1.76,0,2.64s-.74,1.44-1.77,1.44h-18.46,0Z"/>
  <path class="cls-1" d="M42.46,54.86h-18.44c-.88,0-1.58-.47-1.74-1.18-.01-.06-.02-.12-.02-.18v-2.79c0-.71.72-1.34,1.59-1.38.06,0,.12,0,.18,0h36.88c.85,0,1.55.44,1.72,1.08.03.12.04.24.05.36,0,.88,0,1.76,0,2.64s-.74,1.44-1.77,1.44h-18.46,0Z"/>
</svg>