<?xml version="1.0" encoding="UTF-8"?>
<svg id="Layer_1" data-name="Layer 1" xmlns="http://www.w3.org/2000/svg" version="1.1" viewBox="0 0 93.6 130.6">
  <defs>
    <style>
      .cls-1 {
        fill: #fff;
        stroke: #fff;
        stroke-miterlimit: 10;
        stroke-width: 7px;
      }
    </style>
  </defs>
  <path class="cls-1" d="M44.7,71.8c0-.1.1-.2.2-.3,9.5-9.5,19-19,28.5-28.5.4-.4.9-.8,1.5-.9.8-.1,1.5.2,2.1.7,1.3,1.3,2.5,2.5,3.8,3.8.8.9.9,2,.2,3-.1.2-.2.3-.4.4-11.4,11.4-22.8,22.8-34.2,34.2-.7.7-1.4,1-2.4.8-.5-.1-.8-.4-1.2-.7-3.6-3.6-7.3-7.3-10.9-10.9-7.8-7.8-15.6-15.6-23.4-23.4-1-1-1.1-2.6,0-3.6,1.2-1.1,2.4-2.3,3.5-3.5,1.1-1.1,2.5-1.1,3.6,0,5.6,5.6,11.1,11.1,16.7,16.7,3,3,6,6,9,9,1,1,2,2,3,3,0,0,.1.1.3.3h0Z"/>
</svg>